<svg width="24" height="24" viewBox="0 0 24 24" fill="none" xmlns="http://www.w3.org/2000/svg">
<path d="M12 3C10.1619 3.00068 8.36815 3.56414 6.85984 4.6146C5.35152 5.66506 4.20099 7.15215 3.56297 8.87593C2.92494 10.5997 2.83 12.4775 3.29092 14.2569C3.75183 16.0362 4.7465 17.6317 6.14118 18.829C7.53586 20.0262 9.26367 20.7677 11.0923 20.9538C12.9209 21.1398 14.7627 20.7615 16.3699 19.8698C17.9772 18.978 19.2728 17.6155 20.0827 15.9654C20.8925 14.3154 21.1778 12.457 20.9 10.64C20.1356 11.816 18.9428 12.6478 17.575 12.9586C16.2073 13.2693 14.7722 13.0347 13.5746 12.3044C12.3771 11.5742 11.5113 10.4059 11.1613 9.04758C10.8113 7.68931 11.0045 6.24809 11.7 5.03C12.0916 4.26357 12.6608 3.60185 13.36 3.1C12.92 3.04 12.46 3 12 3V3Z" fill="#485FE2"/>
</svg>
