<svg width="24" height="24" viewBox="0 0 24 24" fill="none" xmlns="http://www.w3.org/2000/svg">
<path d="M12 7C10.6739 7 9.40215 7.52678 8.46447 8.46447C7.52678 9.40215 7 10.6739 7 12C7 13.3261 7.52678 14.5979 8.46447 15.5355C9.40215 16.4732 10.6739 17 12 17C13.3261 17 14.5979 16.4732 15.5355 15.5355C16.4732 14.5979 17 13.3261 17 12C17 10.6739 16.4732 9.40215 15.5355 8.46447C14.5979 7.52678 13.3261 7 12 7V7ZM2 13H4C4.26522 13 4.51957 12.8946 4.70711 12.7071C4.89464 12.5196 5 12.2652 5 12C5 11.7348 4.89464 11.4804 4.70711 11.2929C4.51957 11.1054 4.26522 11 4 11H2C1.73478 11 1.48043 11.1054 1.29289 11.2929C1.10536 11.4804 1 11.7348 1 12C1 12.2652 1.10536 12.5196 1.29289 12.7071C1.48043 12.8946 1.73478 13 2 13ZM20 13H22C22.2652 13 22.5196 12.8946 22.7071 12.7071C22.8946 12.5196 23 12.2652 23 12C23 11.7348 22.8946 11.4804 22.7071 11.2929C22.5196 11.1054 22.2652 11 22 11H20C19.7348 11 19.4804 11.1054 19.2929 11.2929C19.1054 11.4804 19 11.7348 19 12C19 12.2652 19.1054 12.5196 19.2929 12.7071C19.4804 12.8946 19.7348 13 20 13ZM11 2V4C11 4.26522 11.1054 4.51957 11.2929 4.70711C11.4804 4.89464 11.7348 5 12 5C12.2652 5 12.5196 4.89464 12.7071 4.70711C12.8946 4.51957 13 4.26522 13 4V2C13 1.73478 12.8946 1.48043 12.7071 1.29289C12.5196 1.10536 12.2652 1 12 1C11.7348 1 11.4804 1.10536 11.2929 1.29289C11.1054 1.48043 11 1.73478 11 2V2ZM11 20V22C11 22.2652 11.1054 22.5196 11.2929 22.7071C11.4804 22.8946 11.7348 23 12 23C12.2652 23 12.5196 22.8946 12.7071 22.7071C12.8946 22.5196 13 22.2652 13 22V20C13 19.7348 12.8946 19.4804 12.7071 19.2929C12.5196 19.1054 12.2652 19 12 19C11.7348 19 11.4804 19.1054 11.2929 19.2929C11.1054 19.4804 11 19.7348 11 20ZM5.99 4.58C5.90035 4.47532 5.79003 4.3903 5.66597 4.33027C5.54191 4.27025 5.40677 4.23652 5.26905 4.2312C5.13133 4.22588 4.994 4.24909 4.86568 4.29936C4.73735 4.34964 4.6208 4.4259 4.52335 4.52335C4.4259 4.6208 4.34964 4.73735 4.29936 4.86568C4.24909 4.994 4.22588 5.13133 4.2312 5.26905C4.23652 5.40677 4.27025 5.54191 4.33027 5.66597C4.3903 5.79003 4.47532 5.90035 4.58 5.99L5.64 7.05C5.72965 7.15468 5.83997 7.2397 5.96403 7.29973C6.08809 7.35975 6.22323 7.39348 6.36095 7.3988C6.49867 7.40412 6.636 7.38091 6.76432 7.33064C6.89265 7.28036 7.0092 7.20411 7.10665 7.10665C7.20411 7.0092 7.28036 6.89265 7.33064 6.76432C7.38091 6.636 7.40412 6.49867 7.3988 6.36095C7.39348 6.22323 7.35975 6.08809 7.29973 5.96403C7.2397 5.83997 7.15468 5.72965 7.05 5.64L5.99 4.58ZM18.36 16.95C18.2704 16.8453 18.16 16.7603 18.036 16.7003C17.9119 16.6403 17.7768 16.6065 17.6391 16.6012C17.5013 16.5959 17.364 16.6191 17.2357 16.6694C17.1074 16.7196 16.9908 16.7959 16.8934 16.8934C16.7959 16.9908 16.7196 17.1074 16.6694 17.2357C16.6191 17.364 16.5959 17.5013 16.6012 17.6391C16.6065 17.7768 16.6403 17.9119 16.7003 18.036C16.7603 18.16 16.8453 18.2704 16.95 18.36L18.01 19.42C18.0996 19.5247 18.21 19.6097 18.334 19.6697C18.4581 19.7297 18.5932 19.7635 18.7309 19.7688C18.8687 19.7741 19.006 19.7509 19.1343 19.7006C19.2626 19.6504 19.3792 19.5741 19.4767 19.4767C19.5741 19.3792 19.6504 19.2626 19.7006 19.1343C19.7509 19.006 19.7741 18.8687 19.7688 18.7309C19.7635 18.5932 19.7297 18.4581 19.6697 18.334C19.6097 18.21 19.5247 18.0996 19.42 18.01L18.36 16.95ZM19.42 5.99C19.5247 5.90035 19.6097 5.79003 19.6697 5.66597C19.7297 5.54191 19.7635 5.40677 19.7688 5.26905C19.7741 5.13133 19.7509 4.994 19.7006 4.86568C19.6504 4.73735 19.5741 4.6208 19.4767 4.52335C19.3792 4.4259 19.2626 4.34964 19.1343 4.29936C19.006 4.24909 18.8687 4.22588 18.7309 4.2312C18.5932 4.23652 18.4581 4.27025 18.334 4.33027C18.21 4.3903 18.0996 4.47532 18.01 4.58L16.95 5.64C16.8453 5.72965 16.7603 5.83997 16.7003 5.96403C16.6403 6.08809 16.6065 6.22323 16.6012 6.36095C16.5959 6.49867 16.6191 6.636 16.6694 6.76432C16.7196 6.89265 16.7959 7.0092 16.8934 7.10665C16.9908 7.20411 17.1074 7.28036 17.2357 7.33064C17.364 7.38091 17.5013 7.40412 17.6391 7.3988C17.7768 7.39348 17.9119 7.35975 18.036 7.29973C18.16 7.2397 18.2704 7.15468 18.36 7.05L19.42 5.99ZM7.05 18.36C7.15468 18.2704 7.2397 18.16 7.29973 18.036C7.35975 17.9119 7.39348 17.7768 7.3988 17.6391C7.40412 17.5013 7.38091 17.364 7.33064 17.2357C7.28036 17.1074 7.20411 16.9908 7.10665 16.8934C7.0092 16.7959 6.89265 16.7196 6.76432 16.6694C6.636 16.6191 6.49867 16.5959 6.36095 16.6012C6.22323 16.6065 6.08809 16.6403 5.96403 16.7003C5.83997 16.7603 5.72965 16.8453 5.64 16.95L4.58 18.01C4.47532 18.0996 4.3903 18.21 4.33027 18.334C4.27025 18.4581 4.23652 18.5932 4.2312 18.7309C4.22588 18.8687 4.24909 19.006 4.29936 19.1343C4.34964 19.2626 4.4259 19.3792 4.52335 19.4767C4.6208 19.5741 4.73735 19.6504 4.86568 19.7006C4.994 19.7509 5.13133 19.7741 5.26905 19.7688C5.40677 19.7635 5.54191 19.7297 5.66597 19.6697C5.79003 19.6097 5.90035 19.5247 5.99 19.42L7.05 18.36V18.36Z" fill="#485FE2"/>
</svg>
